<?xml version="1.0" encoding="UTF-8"?><svg id="Layer_2" xmlns="http://www.w3.org/2000/svg" viewBox="0 0 292.5 391.42"><defs><style>.cls-1{fill:#2da55c;}</style></defs><g id="Layer_1-2"><path class="cls-1" d="m292.5,112.44v196.06c0,4.85-3.04,9.16-7.61,10.79l-33.18,11.89-65.82,23.5-40.79,14.56-60.07,21.46-.43.16h-.02c-2.94,1.04-6.18.63-8.75-1.14l-5.79-3.94h-.02l-9.81-6.69L3.86,340.71c-2.41-1.65-3.86-4.4-3.86-7.32v-186.78c0-7.08,7.95-11.3,13.81-7.3l61.6,41.96c2.41,1.65,3.86,4.4,3.86,7.32v171.12c0,6.12,6.04,10.38,11.81,8.34l48.15-17.21c3.51-1.26,5.87-4.59,5.87-8.32v-177.46c0-2.92-1.45-5.67-3.86-7.32l-77.38-52.68c-2.41-1.65-3.86-4.4-3.86-7.32v-20.44c0-7.1,7.95-11.3,13.81-7.3l91.48,62.29.41.29,9.71,6.61,7.12,5.08c2.1,1.51,3.35,3.92,3.35,6.51v170.82c0,6.12,6.04,10.38,11.81,8.34l48.15-17.21c3.51-1.26,5.87-4.59,5.87-8.32V127.02c0-2.92-1.45-5.67-3.86-7.32L126.64,37.14c-2.41-1.65-3.86-4.4-3.86-7.32V8.85c0-7.08,7.95-11.3,13.81-7.3l135.31,92.19.41.27,16.32,11.1c2.41,1.65,3.86,4.39,3.86,7.32Z"/></g></svg>