<?xml version="1.0" encoding="UTF-8"?><svg id="Layer_2" xmlns="http://www.w3.org/2000/svg" viewBox="0 0 425.95 405.88"><defs><style>.cls-1{fill:#e6e6e6;}.cls-2{fill:#fff;}.cls-3{fill:#e02a52;}.cls-4{fill:#2f4858;}.cls-5{fill:#2da55c;}</style></defs><g id="Layer_1-2"><path class="cls-5" d="m22.02,345.79L0,279.34s24.22,24.22,24.22,44.1l-4.35-45.96s12.42,16.77,11.18,42.23-9.03,26.08-9.03,26.08Z"/><path class="cls-1" d="m385.73,373.46c.04,43.71-86.66,30.27-192.81,30.36S1.38,417.5,1.34,373.79s86.63-53.3,192.78-53.39,191.57,9.34,191.61,53.06Z"/><path class="cls-4" d="m423.14,318.14L245.54,10.54c-3.75-6.5-10.74-10.54-18.25-10.54s-14.5,4.04-18.25,10.54L31.45,318.14c-3.76,6.5-3.76,14.58,0,21.07,3.75,6.5,10.74,10.54,18.25,10.54h213.58l56.36,31.71c2.13,1.2,4.5,1.79,6.87,1.79s4.88-.63,7.06-1.91c4.3-2.51,6.94-7.11,6.94-12.09v-19.5h64.38c7.5,0,14.49-4.04,18.25-10.54,3.75-6.49,3.75-14.57,0-21.07Zm-18.25,17.61h-71.31c-3.91,0-7.07,3.17-7.07,7.07v26.43l-57.95-32.59c-1.06-.6-2.25-.91-3.47-.91H49.7c-5.45,0-8.85-5.89-6.13-10.61L221.17,17.54c1.36-2.36,3.74-3.54,6.12-3.54s4.76,1.18,6.13,3.54l177.59,307.6c2.72,4.72-.68,10.61-6.12,10.61Z"/><path class="cls-3" d="m404.89,335.75h-71.31c-3.91,0-7.07,3.17-7.07,7.07v26.43l-57.95-32.59c-1.06-.6-2.25-.91-3.47-.91H49.7c-5.45,0-8.85-5.89-6.13-10.61L221.17,17.54c1.36-2.36,3.74-3.54,6.12-3.54s4.76,1.18,6.13,3.54l177.59,307.6c2.72,4.72-.68,10.61-6.12,10.61Z"/><path class="cls-5" d="m383.63,377.79l-22.56-68.09s24.82,24.82,24.82,45.18l-4.45-47.09s12.73,17.18,11.45,43.27-9.25,26.73-9.25,26.73Z"/><polygon class="cls-2" points="214.96 265.43 212.96 295.13 241.63 295.13 239.63 265.43 214.96 265.43"/><polygon class="cls-2" points="238.63 232.02 241.63 106.71 212.96 106.71 215.96 232.02 238.63 232.02"/></g></svg>