<?xml version="1.0" encoding="UTF-8"?><svg id="Layer_2" xmlns="http://www.w3.org/2000/svg" viewBox="0 0 647.63 632.17"><defs><style>.cls-1{fill:#f2f2f2;}.cls-2{fill:#e6e6e6;}.cls-3{fill:#fff;}.cls-4{fill:#2f4858;}.cls-5{fill:#2da55c;}</style></defs><g id="Layer_1-2"><path class="cls-1" d="m411.14,142.17h-174.51c-8.28.01-14.99,6.72-15,15v387.85l-2,.61-42.81,13.11c-4.22,1.29-8.69-1.09-9.99-5.31L39.49,137.48c-1.29-4.22,1.09-8.7,5.31-9.99l65.97-20.2,191.25-58.54,65.97-20.2c4.22-1.3,8.69,1.07,9.99,5.29h0s32.55,106.33,32.55,106.33l.61,2Z"/><path class="cls-4" d="m449.22,140.17L409.99,12.03c-2.74-8.98-12.24-14.03-21.22-11.28,0,0,0,0-.01,0l-92.75,28.39-191.24,58.55L12.03,116.09c-8.97,2.75-14.02,12.25-11.28,21.23l134.08,437.93c2.19,7.14,8.79,12.02,16.26,12.03,1.68,0,3.36-.25,4.97-.75l63.58-19.46,2-.62v-2.09l-2,.61-64.17,19.65c-7.92,2.41-16.3-2.04-18.73-9.95L2.67,136.73c-2.43-7.91,2.01-16.29,9.92-18.72.01,0,.02,0,.03-.01l92.75-28.4,191.24-58.54L389.36,2.66c1.43-.44,2.92-.66,4.41-.66,6.58.01,12.39,4.32,14.32,10.61l39.05,127.56.62,2h2.08l-.61-2Z"/><path class="cls-5" d="m122.68,127.82c-3.96,0-7.45-2.58-8.61-6.37l-12.88-42.07c-1.46-4.75,1.22-9.78,5.97-11.24h0S283.1,14.27,283.1,14.27c4.75-1.45,9.78,1.22,11.24,5.97l12.88,42.07c1.45,4.75-1.22,9.78-5.97,11.24l-175.94,53.86c-.85.26-1.74.39-2.63.4Z"/><circle class="cls-5" cx="190.15" cy="24.95" r="20"/><circle class="cls-3" cx="190.15" cy="24.95" r="12.66"/><path class="cls-2" d="m602.64,582.17h-338c-4.69,0-8.49-3.81-8.5-8.5V168.67c0-4.69,3.81-8.49,8.5-8.5h338c4.69,0,8.49,3.81,8.5,8.5v405c0,4.69-3.81,8.49-8.5,8.5Z"/><path class="cls-4" d="m447.13,140.17h-210.5c-9.38.01-16.99,7.62-17,17v407.8l2-.61V157.17c.01-8.28,6.72-14.99,15-15h211.12l-.62-2Zm183.5,0H236.63c-9.38.01-16.99,7.62-17,17v458c.01,9.38,7.62,16.99,17,17h394c9.38-.01,16.99-7.62,17-17V157.17c-.01-9.38-7.62-16.99-17-17Zm15,475c-.01,8.28-6.72,14.99-15,15H236.63c-8.28-.01-14.99-6.72-15-15V157.17c.01-8.28,6.72-14.99,15-15h394c8.28.01,14.99,6.72,15,15v458Z"/><path class="cls-5" d="m525.64,184.17h-184c-4.97,0-8.99-4.03-9-9v-44c0-4.97,4.03-8.99,9-9h184c4.97,0,8.99,4.03,9,9v44c0,4.97-4.03,8.99-9,9Z"/><circle class="cls-5" cx="433.63" cy="105.17" r="20"/><circle class="cls-3" cx="433.63" cy="105.17" r="12.18"/><rect class="cls-4" x="478.25" y="274.43" width="45.8" height="230.62"/><rect class="cls-4" x="410.73" y="322.4" width="45.8" height="182.64"/><rect class="cls-4" x="343.22" y="377.87" width="45.8" height="127.18"/></g></svg>