<?xml version="1.0" encoding="UTF-8"?><svg id="Layer_2" xmlns="http://www.w3.org/2000/svg" viewBox="0 0 519.68 519.67"><defs><style>.cls-1{fill:#fff;}</style></defs><g id="Layer_1-2"><path class="cls-1" d="m510.64,373.01c-5.83-7.57-14.12-13.1-23.36-15.55l-6.88-1.83c-3.21-.85-6.47-1.33-9.72-1.44-.08-12.09-4.41-20.51-8.76-25.9-7.5-9.28-19.25-15.45-34.91-18.34-3.13-.58-6.09-.95-8.75-1.2V11.09c0-6.12-4.96-11.09-11.09-11.09h-55.42c-6.12,0-11.09,4.96-11.09,11.09v122.95h-33.25v-45.04c0-6.12-4.96-11.09-11.09-11.09h-55.42c-6.12,0-11.09,4.96-11.09,11.09v112.09h-44.34c-6.12,0-11.09,4.96-11.09,11.09v98.81c-12.89-2.95-26.27-3.46-39.41-1.43l-45.24,6.99c-4.96-12.13-16.88-20.7-30.77-20.7H11.09c-6.12,0-11.09,4.96-11.09,11.09v189.59c0,6.12,4.96,11.09,11.09,11.09h47.88c15.13,0,27.91-10.17,31.91-24.02,8.48-.69,28.51.03,67.77,12.62,64.35,20.64,88.18,23.31,89.16,23.41.39.04.77.06,1.16.06h62.14c19.59,0,39.12-4.82,56.48-13.93l128.75-67.57c14.39-7.55,23.34-22.34,23.34-38.6,0-9.56-3.21-19-9.04-26.57Zm-65.95-30.74c3.36,4.18,4.53,9.7,3.53,16.79l-29.97,11.19v-39.24c9.17,1.11,20.71,4.12,26.45,11.25ZM362.82,22.17h33.25v356.36l-33.25,12.42V22.17Zm-22.17,134.04v243.03l-14.97,5.59c.33-4.92-.29-9.97-1.94-14.92l-1.42-4.26c-.4-1.21-.87-2.39-1.37-3.55-.16-.37-.33-.73-.5-1.09-.37-.8-.75-1.58-1.17-2.35-.21-.39-.43-.78-.65-1.17-.43-.75-.89-1.48-1.36-2.2-.22-.34-.44-.69-.67-1.02-.7-1-1.42-1.97-2.2-2.9-.19-.23-.4-.44-.59-.66-.61-.71-1.24-1.4-1.89-2.07-.36-.36-.73-.71-1.1-1.06-.53-.51-1.07-1-1.63-1.48-.41-.35-.82-.69-1.24-1.03-.19-.15-.36-.31-.55-.46v-208.41h33.25Zm-88.68-56.12h33.25v253.85l-9.9-3.96-23.35-9.34V100.08Zm-55.42,123.17h33.25v108.5l-33.25-13.3v-95.2ZM58.96,485.43H22.17v-167.42h36.79c6.11,0,11.07,4.97,11.07,11.07v145.27c0,6.11-4.97,11.07-11.07,11.07Zm427.08-66.89l-128.75,67.57c-14.19,7.45-30.16,11.39-46.18,11.39h-61.44c-3.65-.5-27.67-4.27-84.25-22.41-37.18-11.93-59.81-14.42-73.21-13.87v-122.63l46.15-7.12c14.49-2.25,29.37-.58,43.03,4.82.12.05.23.09.35.13,0,0,.01,0,.02,0l37.31,14.92,69.42,27.77c.89.36,1.68.73,2.49,1.19,4.87,2.67,8.52,7.05,10.29,12.37l1.42,4.26c2.42,7.27-.58,15.4-7.15,19.34-.96.58-1.96,1.05-3.04,1.43-3.55,1.29-7.58,1.33-11.26.07l-76.97-26.53c-5.79-1.99-12.1,1.08-14.09,6.87-2,5.79,1.08,12.1,6.87,14.09l76.99,26.54c4.12,1.41,8.41,2.13,12.74,2.13,4.58,0,9.06-.79,13.24-2.31,1.95-.69,3.85-1.6,5.69-2.62l66.82-24.95,38.49-14.37s0,0,0,0l50.66-18.93c4.19-1.56,8.69-1.78,13-.63l6.89,1.83c4.6,1.22,8.57,3.86,11.48,7.64,2.9,3.77,4.44,8.29,4.44,13.05,0,7.99-4.39,15.25-11.46,18.96Z"/></g></svg>