<?xml version="1.0" encoding="UTF-8"?><svg id="Layer_2" xmlns="http://www.w3.org/2000/svg" viewBox="0 0 517.99 405.11"><defs><style>.cls-1{fill:#a1a1aa;}.cls-2{fill:#d3d3d3;}.cls-3{fill:#2f4858;}.cls-4{fill:#2da55c;}.cls-5{opacity:.2;}</style></defs><g id="Layer_1-2"><rect class="cls-2" x="63.38" y="162.73" width="391.24" height="242.38" rx="19.9" ry="19.9"/><path class="cls-5" d="m444,162.73v-34.57h-74s-74,0-74,0h-148s-74,0-74,0v34.57h-10.62v48.37c6.57-6.68,10.62-15.84,10.62-25.94,0,20.43,16.57,36.99,37,36.99s37-16.56,37-36.99h0c0,20.43,16.57,36.99,37,36.99s37-16.56,37-36.99c0,20.43,16.56,36.99,37,36.99s37-16.56,37-36.99c0,20.43,16.56,36.99,37,36.99s37-16.56,37-36.99h0c0,20.43,16.56,36.99,37,36.99s37-16.56,37-36.99c0,10.1,4.05,19.26,10.62,25.94v-48.37h-10.62Z"/><path class="cls-3" d="m436.88,0h-52.96l60.07,117.72h.01v57c0,20.43,16.56,36.99,36.99,36.99s37-16.56,37-36.99v-57L436.88,0Z"/><path class="cls-3" d="m81.12,0L0,117.72v57c0,20.43,16.57,36.99,37,36.99s37-16.56,37-36.99v-57L134.08,0h-52.96Z"/><path class="cls-4" d="m134.08,0l-60.08,117.72v57c0,20.43,16.57,36.99,37,36.99s37-16.56,37-36.99v-57L189.54,0h-55.46Z"/><path class="cls-3" d="m189.54,0l-41.54,117.72v57c0,20.43,16.57,36.99,37,36.99s37-16.56,37-36.99v-57L236.48,0h-46.94Z"/><path class="cls-4" d="m281.52,0h-45.04l-14.48,117.72v57c0,20.43,16.56,36.99,37,36.99s37-16.56,37-36.99v-57L281.52,0Z"/><path class="cls-3" d="m328.46,0h-46.94l14.48,117.72v57c0,20.43,16.56,36.99,37,36.99s37-16.56,37-36.99v-57L328.46,0Z"/><path class="cls-4" d="m443.99,117.72L383.92,0h-55.46l41.54,117.72v57c0,20.43,16.56,36.99,37,36.99s37-16.56,37-36.99v-57h-.01Z"/><path class="cls-4" d="m322,250.31h68.91c6.29,0,11.39,5.11,11.39,11.39v143.41h-91.7v-143.41c0-6.29,5.11-11.39,11.39-11.39Z"/><circle class="cls-3" cx="324.98" cy="327.71" r="6.42"/><path class="cls-1" d="m252.55,254.35v71.84c0,2.24-1.81,4.05-4.05,4.05h-123.02c-2.23,0-4.04-1.81-4.04-4.05v-71.84c0-2.23,1.81-4.04,4.04-4.04h123.02c2.24,0,4.05,1.81,4.05,4.04Z"/><path class="cls-5" d="m252.55,254.35v10.17H121.44v-10.17c0-2.23,1.81-4.04,4.04-4.04h123.02c2.24,0,4.05,1.81,4.05,4.04Z"/></g></svg>